<svg xmlns="http://www.w3.org/2000/svg" width="512" height="512" viewBox="0 0 256 256">
  <defs>
    <linearGradient id="bg" x1="0" x2="1" y1="0" y2="1">
      <stop offset="0%" stop-color="#E8F0FF"/>
      <stop offset="100%" stop-color="#DDEBFF"/>
    </linearGradient>
  </defs>
  <rect width="256" height="256" rx="128" fill="url(#bg)"/>
  <g transform="translate(0,8)">
    <circle cx="128" cy="92" r="44" fill="#F2D6C9"/>
    <path d="M84 96c2-26 18-44 44-44s42 18 44 44v10c-4 8-14 14-24 14h-40c-10 0-20-6-24-14V96z" fill="#1F2937"/>
    <rect x="68" y="152" width="120" height="70" rx="20" fill="#0F172A"/>
    <path d="M88 180h80a20 20 0 0 1 20 20v10H68v-10a20 20 0 0 1 20-20z" fill="#111827"/>
    <rect x="76" y="164" width="104" height="10" rx="5" fill="#2563EB"/>
    <circle cx="114" cy="92" r="4" fill="#0B1220"/>
    <circle cx="142" cy="92" r="4" fill="#0B1220"/>
    <path d="M116 112c6 6 18 6 24 0" stroke="#0B1220" stroke-width="3" stroke-linecap="round" fill="none"/>
    <rect x="92" y="200" width="72" height="16" rx="8" fill="#2563EB"/>
  </g>
</svg>
